<svg width="256" height="256" viewBox="0 0 256 256" fill="none" xmlns="http://www.w3.org/2000/svg">
  <defs>
    <linearGradient id="bg" x1="0" y1="0" x2="256" y2="256" gradientUnits="userSpaceOnUse">
      <stop stop-color="#0A66C2" />
      <stop offset="1" stop-color="#074F99" />
    </linearGradient>
    <linearGradient id="shine" x1="64" y1="64" x2="192" y2="192" gradientUnits="userSpaceOnUse">
      <stop stop-color="#FFFFFF" stop-opacity="0.18" />
      <stop offset="1" stop-color="#FFFFFF" stop-opacity="0" />
    </linearGradient>
  </defs>

  <rect width="256" height="256" rx="64" fill="url(#bg)" />
  <path d="M56 54C56 41.1929 67.1929 30 80 30H176C188.807 30 200 41.1929 200 54V202C200 214.807 188.807 226 176 226H80C67.1929 226 56 214.807 56 202V54Z" fill="rgba(255,255,255,0.08)" />
  <path d="M74 70H122C132.493 70 141 78.5068 141 89V104C141 114.493 132.493 123 122 123H90V133H131V156H90V196H74V70Z" fill="#FFFFFF" />
  <path d="M168 74H182C194.807 74 206 85.1929 206 98V158C206 170.807 194.807 182 182 182H168V152H142V182H126V74H142V110H168V74Z" fill="#FFFFFF" />
  <path d="M180 88C180 82.4772 184.477 78 190 78H198C203.523 78 208 82.4772 208 88V96C208 101.523 203.523 106 198 106H190C184.477 106 180 101.523 180 96V88Z" fill="#DDF2FF" opacity="0.95" />
  <circle cx="178" cy="178" r="12" fill="#DDF2FF" opacity="0.9" />
  <path d="M58 58L198 198" stroke="url(#shine)" stroke-width="12" stroke-linecap="round" opacity="0.18" />
  <path d="M64 192L192 64" stroke="url(#shine)" stroke-width="12" stroke-linecap="round" opacity="0.12" />
</svg>
